<svg width="163" height="51" viewBox="0 0 163 51" fill="none" xmlns="http://www.w3.org/2000/svg">
<path d="M100.276 5.75781V7.89451H91.0196V14.0642H99.7202V16.2009H91.0196V22.6911H100.355V24.8278H88.5073V5.75781H100.276Z" fill="#242424"/>
<path d="M84.5675 5.75781V7.89451H75.3116V14.0642H84.0122V16.2009H75.3116V22.6911H84.6469V24.8278H72.7993V5.75781H84.5675Z" fill="#242424"/>
<path d="M58.3047 24.8278V5.75781H69.9407V7.89451H60.817V14.0642H69.1738V16.2009H60.817V24.8278H58.3047Z" fill="#242424"/>
<path d="M43.4487 24.8278V5.75781H55.0847V7.89451H45.9611V14.0642H54.3178V16.2009H45.9611V24.8278H43.4487Z" fill="#242424"/>
<path d="M30.3742 5.30469C36.4831 5.30469 40.159 9.9253 40.159 15.2938C40.159 20.6622 36.4831 25.2828 30.3742 25.2828C24.2653 25.2828 20.5894 20.6622 20.5894 15.2938C20.5894 9.9253 24.2653 5.30469 30.3742 5.30469ZM23.1017 15.2938C23.1017 19.3001 25.6669 23.1461 30.3742 23.1461C35.0815 23.1461 37.6467 19.3001 37.6467 15.2938C37.6467 11.2874 35.0815 7.44139 30.3742 7.44139C25.6669 7.44139 23.1017 11.2874 23.1017 15.2938Z" fill="#242424"/>
<path d="M18.1416 19.1919C17.4011 22.3168 14.4392 25.1746 9.62616 25.1746C3.41147 25.1746 0 20.6608 0 15.2924C0 9.92393 3.41147 5.41016 9.62616 5.41016C14.3599 5.41016 16.9516 7.97419 18.1152 11.3662H15.6028C14.5715 8.96242 12.8261 7.54686 9.62616 7.54686C4.91886 7.54686 2.51232 11.1525 2.51232 15.2924C2.51232 19.4322 4.89242 23.0379 9.62616 23.0379C12.8525 23.0379 14.8624 21.4087 15.6293 19.1919H18.1416Z" fill="#242424"/>
<path d="M149.23 44.6429C149.335 47.5008 151.266 48.8629 154.016 48.8629C156.238 48.8629 158.142 47.8213 158.142 45.4976C158.142 43.1472 156.185 42.7466 153.805 42.0255C150.684 41.0907 147.511 40.1559 147.431 36.5502C147.352 32.8644 150.367 31.0215 153.778 31.0215C157.56 31.0215 160.046 32.9445 160.337 36.7639H157.798C157.454 34.3601 156.264 33.1582 153.778 33.1582C151.689 33.1582 149.944 34.0396 149.944 36.3632C149.944 38.313 151.795 39.0608 154.281 39.7819C157.428 40.69 160.654 41.3845 160.654 45.4175C160.654 49.317 157.401 50.9996 154.016 50.9996C149.891 50.9996 146.77 48.9965 146.717 44.6429H149.23Z" fill="#242424"/>
<path d="M131.095 33.6133V31.4766H145.191V33.6133H139.399V50.5466H136.887V33.6133H131.095Z" fill="#242424"/>
<path d="M130.34 44.9106C129.599 48.0355 126.637 50.8934 121.824 50.8934C115.61 50.8934 112.198 46.3796 112.198 41.0111C112.198 35.6427 115.61 31.1289 121.824 31.1289C126.558 31.1289 129.15 33.6929 130.313 37.085H127.801C126.77 34.6812 125.024 33.2656 121.824 33.2656C117.117 33.2656 114.711 36.8713 114.711 41.0111C114.711 45.151 117.091 48.7567 121.824 48.7567C125.051 48.7567 127.061 47.1274 127.828 44.9106H130.34Z" fill="#242424"/>
<path d="M96.4867 50.5466H93.895L100.93 31.4766H104.077L111.111 50.5466H108.519L106.457 44.9645H98.5759L96.4867 50.5466ZM99.3163 42.8812H105.716L102.543 33.7468H102.463L99.3163 42.8812Z" fill="#242424"/>
<path d="M77.9385 50.5466V31.4766H84.7085C89.0191 31.4766 91.1083 33.9071 91.1083 36.8984C91.1083 39.6227 89.2836 41.3588 87.1679 41.8663C88.9927 42.347 89.548 43.7893 90.2621 46.1931C90.791 47.9558 91.1877 49.0242 91.9017 50.2795V50.5466H89.2307C88.596 49.2379 88.12 47.4751 87.5646 45.9794C86.9035 44.1899 86.1366 42.7476 83.8623 42.7476H80.4508V50.5466H77.9385ZM80.4508 40.6109H84.6027C87.2737 40.6109 88.5696 39.142 88.5696 36.8984C88.5696 35.1891 87.644 33.6133 84.4441 33.6133H80.4508V40.6109Z" fill="#242424"/>
<path d="M61.1343 33.6133V31.4766H75.2297V33.6133H69.4382V50.5466H66.9258V33.6133H61.1343Z" fill="#242424"/>
<path d="M43.4487 31.4766H46.5164L53.8683 43.5222C54.5823 44.6707 55.2699 45.8459 55.9839 46.9943C55.9839 45.6856 55.931 44.5104 55.931 43.2017V31.4766H58.4433V50.5466H55.2963L47.9709 38.5811C47.2569 37.4593 46.6222 36.3108 45.9082 35.1891C45.9082 36.5245 45.9611 37.7798 45.9611 39.1153V50.5466H43.4487V31.4766Z" fill="#242424"/>
<path d="M30.3742 31.0215C36.4831 31.0215 40.159 35.6421 40.159 41.0105C40.159 46.379 36.4831 50.9996 30.3742 50.9996C24.2653 50.9996 20.5894 46.379 20.5894 41.0105C20.5894 35.6421 24.2653 31.0215 30.3742 31.0215ZM23.1017 41.0105C23.1017 45.0169 25.6669 48.8629 30.3742 48.8629C35.0815 48.8629 37.6467 45.0169 37.6467 41.0105C37.6467 37.0042 35.0815 33.1582 30.3742 33.1582C25.6669 33.1582 23.1017 37.0042 23.1017 41.0105Z" fill="#242424"/>
<path d="M18.1416 44.9106C17.4011 48.0355 14.4392 50.8934 9.62616 50.8934C3.41147 50.8934 0 46.3796 0 41.0111C0 35.6427 3.41147 31.1289 9.62616 31.1289C14.3599 31.1289 16.9516 33.6929 18.1152 37.085H15.6028C14.5715 34.6812 12.8261 33.2656 9.62616 33.2656C4.91886 33.2656 2.51232 36.8713 2.51232 41.0111C2.51232 45.151 4.89242 48.7567 9.62616 48.7567C12.8525 48.7567 14.8624 47.1274 15.6293 44.9106H18.1416Z" fill="#242424"/>
<path d="M154.045 17.5927L154.527 16.1324C152.255 20.548 149.226 24.8592 146.678 24.8592C144.888 24.8592 143.993 23.6076 143.993 21.3476C143.993 16.2715 149.364 6.77978 155.147 6.77978C155.904 6.77978 156.627 6.95362 157.247 7.23177L158.762 2.399H155.663L155.767 1.91225L162.273 0L156.524 18.4966C155.836 20.6175 155.319 22.4254 156.214 22.4254C156.937 22.4254 158.108 21.0695 159.416 18.6705L159.829 18.9486C157.935 22.5645 155.836 24.8592 154.252 24.8592C153.185 24.8592 152.703 24.2334 152.703 22.9817C152.703 21.7648 153.288 19.8874 154.045 17.5927ZM146.782 20.235C146.782 21.6258 146.954 22.5645 148.227 22.5645C150.396 22.5645 154.665 15.0894 156.696 9.24832C156.008 8.65726 155.216 8.24004 154.252 8.24004C150.362 8.24004 146.782 15.437 146.782 20.235Z" fill="#242424"/>
<path d="M139.487 18.2528C138.454 20.9647 138.144 22.6336 138.902 22.6336C139.659 22.6336 140.898 21.069 142.241 18.67L142.654 18.9481C140.795 22.6683 138.351 24.8587 136.802 24.8587C135.976 24.8587 135.425 24.372 135.425 23.2594C135.425 21.973 136.113 19.7826 137.215 16.8273L139.212 11.5078C139.797 9.9432 139.384 9.07399 138.523 9.07399C136.354 9.07399 130.846 16.8273 128.815 23.3637L128.471 24.511H125.717L129.297 13.6982C130.054 11.3687 130.64 9.2826 129.676 9.2826C128.987 9.2826 127.748 10.6733 126.44 13.0723L125.992 12.8289C127.92 9.21307 130.054 6.7793 131.707 6.7793C132.705 6.7793 133.153 7.47466 133.153 8.58724C133.153 9.87366 132.533 11.925 131.741 14.324L131.018 16.4448C133.325 12.0293 137.662 6.7793 140.416 6.7793C142.826 6.7793 142.861 9.21307 141.725 12.2379L139.487 18.2528Z" fill="#242424"/>
<path d="M124.397 18.9481C122.503 22.564 120.403 24.8587 118.785 24.8587C117.753 24.8587 117.271 24.2329 117.271 22.9812C117.271 21.7644 117.856 19.8869 118.613 17.5922L118.992 16.4448C116.754 20.7561 113.794 24.8587 111.315 24.8587C109.525 24.8587 108.63 23.6071 108.63 21.3471C108.63 16.271 113.966 6.7793 119.784 6.7793C120.989 6.7793 122.125 7.23128 122.985 7.89188L124.259 6.7793H124.741L121.057 18.4962C120.403 20.617 119.887 22.4249 120.782 22.4249C121.505 22.4249 122.675 21.069 123.949 18.67L124.397 18.9481ZM111.418 20.2346C111.418 21.6253 111.59 22.564 112.864 22.564C115.033 22.564 119.302 15.0889 121.333 9.24783C120.644 8.65678 119.853 8.23956 118.889 8.23956C114.999 8.23956 111.418 15.4366 111.418 20.2346Z" fill="#242424"/>
</svg>
